<?xml version="1.0" encoding="utf-8"?>
<!-- Generator: Adobe Illustrator 22.1.0, SVG Export Plug-In . SVG Version: 6.00 Build 0)  -->
<svg version="1.1" id="图层_1" xmlns="http://www.w3.org/2000/svg" xmlns:xlink="http://www.w3.org/1999/xlink" x="0px" y="0px"
	 viewBox="0 0 100 100" style="enable-background:new 0 0 100 100;" xml:space="preserve">
<style type="text/css">
	.st0{fill:#FFFFFF;}
	.st1{fill:#999999;}
	.st2{opacity:0.4;fill:#999999;}
</style>
<g>
	<path class="st0" d="M81,31.2C81,16.9,67.6,5.3,51.1,5.3S21.2,16.9,21.2,31.2c0,12.8,14.9,26.8,26.1,29.7c-0.2,0-0.4,0-0.5,0.1
		c-6.6,3.7-6.3-0.3-8.6,0c-2.2,0.3-2.6,2-4.3,1.7c-3-0.6-7.5-0.8-7.2-3c0.3-3.2-2.3-2.3-2.9-1.6c-1.6,2,0.5,5.4,7.7,8.1
		c3.4,1.2,11,0.9,11,0.9v22.2c0,0-4.9,0.6-5.8,2c-0.9,1.3,0.1,2.6,0.6,2.7c0.4,0.1-1.1,1.2,0,2.1c1,0.8,3.7-0.1,6.3-1.4
		c2.6-1.3,2.6-2.8,2.6-2.8v-6.9c0,0,1.1-3.5,4.8-3.7c3.7,0.2,4.8,3.7,4.8,3.7v6.9c0,0,0,1.4,2.6,2.8c2.6,1.3,5.3,2.2,6.3,1.4
		c1.1-0.9-0.4-2,0-2.1c0.4-0.1,1.4-1.3,0.6-2.7c-0.9-1.3-5.8-2-5.8-2V67.1c0,0,4.8,0.9,10-1.2c9.7-3.8,6.4-8.5,5-8.2
		c-3.1,0.6-0.7,2.9-1.7,3.5c-3,1.5-4.7,1.8-5.4,0.7c-3.5-5.2-2.5,3.9-12.1-0.9c-0.1-0.1-0.3-0.1-0.4-0.1C66.4,58.1,81,44,81,31.2z"
		/>
	<path class="st1" d="M63.6,96.8c-1.7,0-4-1-5.4-1.7c-2.8-1.4-2.9-3-2.9-3.2V85c-0.2-0.5-1.2-3.1-4.3-3.3c-3,0.2-4.1,2.8-4.3,3.3
		v6.8c0,0.2-0.1,1.8-2.9,3.2c-2,1-5.4,2.4-6.8,1.3c-1-0.8-0.5-1.8-0.2-2.2c-0.3-0.2-0.5-0.6-0.7-0.9c-0.3-0.7-0.2-1.6,0.2-2.3
		c0.8-1.3,4.3-1.9,5.7-2.1V67.6c-1.8,0-7.7,0.1-10.7-1c-4.8-1.7-7.8-4-8.4-6.2c-0.3-1-0.1-1.9,0.5-2.6c0.4-0.6,1.7-1.1,2.7-0.7
		c0.6,0.2,1.3,0.9,1.1,2.7c-0.1,1.3,2.6,1.8,5,2.1c0.6,0.1,1.3,0.2,1.8,0.3c0.7,0.1,1.1-0.2,1.7-0.6c0.6-0.4,1.3-1,2.5-1.1
		c1-0.1,1.6,0.3,2.1,0.7c0.9,0.7,2,1.5,5.5-0.3c-11.6-3.7-25.1-17.6-25.1-29.7c0-14.5,13.6-26.4,30.4-26.4s30.4,11.8,30.4,26.4
		c0,12.3-13.4,26.2-25.1,29.8c4.4,1.9,6.1,0.6,7.4-0.4c0.6-0.5,1.2-0.9,2-0.8c0.7,0.1,1.3,0.7,2.1,1.9c0.5,0.8,2.1,0.5,4.8-0.9
		c0-0.1,0-0.4-0.1-0.6c-0.1-0.5-0.3-1.3,0.2-1.9c0.3-0.5,0.9-0.8,1.8-1c0.9-0.2,1.9,0.7,2.2,1.8c0.4,1.3,0.4,4.5-6.9,7.3
		c-4.3,1.7-8.2,1.5-9.7,1.3v21.1c1.4,0.2,4.8,0.9,5.7,2.1c0.5,0.7,0.5,1.5,0.2,2.3c-0.2,0.4-0.4,0.7-0.7,0.9
		c0.3,0.4,0.7,1.4-0.2,2.2C64.7,96.6,64.2,96.8,63.6,96.8z M56.3,91.8c0,0,0.1,1.2,2.4,2.3c3.2,1.6,5.2,1.9,5.8,1.5
		c0.3-0.2,0.3-0.4,0-1c-0.2-0.3-0.3-0.5-0.2-0.8l0.1-0.2l0.3-0.1c0.1,0,0.3-0.3,0.5-0.7c0.1-0.4,0.1-0.8-0.2-1.2
		c-0.5-0.8-3.5-1.5-5.4-1.8l-0.4-0.1V66.5l0.6,0.1c0,0,4.7,0.8,9.7-1.2c6.7-2.6,6.5-5.3,6.3-6.1c-0.2-0.8-0.9-1.1-1-1.1
		c-0.6,0.1-1,0.3-1.1,0.5c-0.2,0.3-0.1,0.7,0,1.2c0.1,0.5,0.3,1.4-0.5,1.7c-2.2,1.1-5,2.2-6.1,0.5c-0.6-0.9-1.1-1.4-1.4-1.4
		c-0.3,0-0.6,0.2-1.2,0.6c-1.4,1.1-3.7,2.9-9.4,0c0,0-0.1,0-0.1,0l-0.2,0l-2.1-0.5l2.1-0.5c11.6-2.8,25.7-16.8,25.7-29.2
		c0-14-13.2-25.4-29.4-25.4S21.7,17.2,21.7,31.2c0,10.2,11.9,25.7,25.8,29.2l2.1,0.5l-2.1,0.4c-0.1,0-0.1,0-0.2,0
		c-0.1,0-0.2,0-0.2,0c-4.4,2.4-5.9,1.7-7.4,0.7c-0.6-0.4-0.9-0.6-1.4-0.5c-0.9,0.1-1.5,0.5-2,0.9c-0.7,0.5-1.3,1-2.4,0.8
		c-0.6-0.1-1.2-0.2-1.8-0.3c-2.9-0.4-6.1-1-5.8-3.2c0.1-0.5,0.1-1.5-0.5-1.7c-0.5-0.2-1.3,0.2-1.5,0.4c-0.4,0.5-0.5,1.1-0.3,1.7
		c0.3,0.9,1.6,3.3,7.8,5.6c3.3,1.2,10.7,0.9,10.8,0.9l0.5,0v23.1l-0.4,0.1c-1.9,0.3-4.9,1-5.4,1.8c-0.3,0.4-0.3,0.8-0.2,1.2
		c0.1,0.4,0.4,0.7,0.5,0.7c0.2,0,0.3,0.2,0.4,0.3c0.1,0.3,0,0.6-0.2,0.8c-0.3,0.6-0.3,0.8,0,1c0.5,0.4,2.5,0.2,5.8-1.5
		c2.3-1.1,2.4-2.3,2.4-2.3l0-7l0-0.1c0,0,1.2-3.9,5.2-4.1c4.1,0.2,5.3,4,5.3,4.1l0,0.1V91.8L56.3,91.8z"/>
</g>
<path class="st2" d="M79.7,23.1C76.8,13.3,65.3,7,57.4,5.6c-15.2-2.8-29.5,7.2-28.7,8c6.4-5.2,43.9-13.4,47.4,15.3
	c2.7,22.5-22.5,31.6-22.8,31.6c0.6,0.4,1.3,0,1.3,0C54.8,61.2,87.5,48.7,79.7,23.1z"/>
<path class="st2" d="M50.9,80.7c0,0,1.6-0.2,3.3,1.3c1.6,1.5,1.5,2.4,1.5,2.4v6.9c0,0,0.1,1.2,1.2,2c1.1,0.8,4.9,3,6.9,2.6
	c2-0.4,1-2,0.7-2.3c-0.3-0.3,0.1,0.8-0.9,1s-4.5-1.3-5.6-2.8c-1.1-1.5-1.3-5.7-1.3-6.9S54.4,79.6,50.9,80.7z"/>
<g>
	<path class="st1" d="M54.2,65.1c-2,0.2-3.5,2-3.3,4c0.2,2,2,3.5,4,3.3s3.5-2,3.3-4S56.2,64.9,54.2,65.1z M57.4,68.5
		c0.1,1.5-1,3-2.6,3.1c-0.8,0.1-1.5-0.2-2.1-0.6c-0.6-0.5-0.9-1.2-1-1.9c-0.1-1.4,0.8-2.7,2.2-3c0.1,0,0.2,0,0.4-0.1
		c0.8-0.1,1.5,0.2,2.1,0.6C56.9,67,57.3,67.7,57.4,68.5z"/>
	<path class="st1" d="M55.4,67.1l-0.9,1.1l-1.1-0.9c-0.1-0.1-0.3,0-0.4,0.2c-0.1,0.2-0.2,0.4-0.1,0.5l1.1,0.9l-0.9,1.1
		c-0.1,0.1,0,0.3,0.2,0.4c0.2,0.1,0.4,0.2,0.5,0.1l0.9-1.1l1.1,0.9c0.1,0.1,0.3,0,0.4-0.2c0.1-0.2,0.2-0.4,0.1-0.5l-1.1-0.9l0.9-1.1
		c0.1-0.1,0-0.3-0.2-0.4C55.7,67,55.5,67,55.4,67.1z"/>
</g>
<path class="st2" d="M73.2,58.7c0,0,2,0.7,0.8,2.8c-1.2,2.1-8.2,5.4-12.8,5.1c-4.9-0.4,1.5,2.9,10.3-1.5
	C80.2,60.7,74.5,55.1,73.2,58.7z"/>
<path class="st1" d="M81.7,35.7c-0.2-0.7-0.9-1.1-1.5-0.9l-5,1.2c-1-3.8-5.3-6.6-10.4-6.6c-5.4,0-9.8,3.1-10.5,7.1H47
	c0,0-0.1,0-0.1,0c-0.7-4-5.1-7.2-10.5-7.2c-5.3,0-9.6,3-10.4,6.9c-0.1-0.1-0.2-0.1-0.3-0.1L20,34.8c-0.7-0.2-1.4,0.3-1.5,0.9
	c-0.2,0.7,0.3,1.4,0.9,1.5l5.6,1.4c0.3,0.1,0.6,0,0.8-0.1c0.6,4.2,5.1,7.4,10.5,7.4c5.4,0,9.8-3.1,10.5-7.2c0,0,0.1,0,0.1,0h7.3
	c0.7,4,5.1,7.1,10.5,7.1c5.5,0,9.9-3.2,10.5-7.4l5.5-1.3C81.4,37.1,81.9,36.4,81.7,35.7z"/>
</svg>
